<svg width="175" height="47" viewBox="0 0 175 47" fill="none" xmlns="http://www.w3.org/2000/svg">
<path d="M0 20.591C0 9.21891 11.2963 0 25.231 0H149.769C163.704 0 175 9.21891 175 20.591C175 31.9631 163.704 41.182 149.769 41.182H25.231C18.7524 41.182 12.8442 39.1893 8.37626 35.914C3.23421 32.1444 0 26.676 0 20.591Z" fill="white"/>
<path d="M0 20.591C0 9.21891 11.2963 0 25.231 0H149.769C163.704 0 175 9.21891 175 20.591C175 31.9631 163.704 41.182 149.769 41.182H25.231C18.7524 41.182 12.8442 39.1893 8.37626 35.914C3.23421 32.1444 0 26.676 0 20.591Z" fill="url(#paint0_linear)"/>
<path d="M13.7453 14.3948L47.2008 35.1004C47.2008 35.1004 33.7445 40.3647 25.231 41.182C16.7176 41.9994 1.22554 47 1.22554 47C6.73424 41.182 7.21838 39.8019 8.37626 35.914C10.3699 29.2199 12.709 23.3373 13.7453 14.3948Z" fill="white"/>
<path d="M13.7453 14.3948L47.2008 35.1004C47.2008 35.1004 33.7445 40.3647 25.231 41.182C16.7176 41.9994 1.22554 47 1.22554 47C6.73424 41.182 7.21838 39.8019 8.37626 35.914C10.3699 29.2199 12.709 23.3373 13.7453 14.3948Z" fill="url(#paint1_linear)"/>
<defs>
<linearGradient id="paint0_linear" x1="175" y1="39.3364" x2="-12.4095" y2="-20.7434" gradientUnits="userSpaceOnUse">
<stop stop-color="#F2994A"/>
<stop offset="1" stop-color="#F2C94D"/>
</linearGradient>
<linearGradient id="paint1_linear" x1="175" y1="39.3364" x2="-12.4095" y2="-20.7434" gradientUnits="userSpaceOnUse">
<stop stop-color="#F2994A"/>
<stop offset="1" stop-color="#F2C94D"/>
</linearGradient>
</defs>
</svg>
