<svg width="127" height="127" viewBox="0 0 127 127" fill="none" xmlns="http://www.w3.org/2000/svg">
<path d="M82.55 6.34998H19.05C12.065 6.34998 6.34998 12.065 6.34998 19.05V107.95C6.34998 114.935 12.065 120.65 19.05 120.65H82.55C89.535 120.65 95.25 114.935 95.25 107.95V19.05C95.25 12.065 89.535 6.34998 82.55 6.34998ZM90.17 107.95C90.17 112.141 86.741 115.57 82.55 115.57H19.05C14.859 115.57 11.43 112.141 11.43 107.95V19.05C11.43 14.859 14.859 11.43 19.05 11.43H82.55C86.741 11.43 90.17 14.859 90.17 19.05V107.95Z" fill="white"/>
<path d="M74.93 16.5099H26.67C22.479 16.5099 19.05 19.9389 19.05 24.1299V34.2899C19.05 38.4809 22.479 41.9099 26.67 41.9099H74.93C79.121 41.9099 82.55 38.4809 82.55 34.2899V24.1299C82.55 19.9389 79.121 16.5099 74.93 16.5099ZM77.47 34.2899C77.47 35.6869 76.327 36.8299 74.93 36.8299H26.67C25.273 36.8299 24.13 35.6869 24.13 34.2899V24.1299C24.13 22.7329 25.273 21.5899 26.67 21.5899H74.93C76.327 21.5899 77.47 22.7329 77.47 24.1299V34.2899Z" fill="white"/>
<path d="M74.93 69.85H72.39C68.199 69.85 64.77 73.279 64.77 77.47V102.87C64.77 107.061 68.199 110.49 72.39 110.49H74.93C79.121 110.49 82.55 107.061 82.55 102.87V77.47C82.55 73.279 79.121 69.85 74.93 69.85ZM77.47 102.87C77.47 104.267 76.327 105.41 74.93 105.41H72.39C70.993 105.41 69.85 104.267 69.85 102.87V77.47C69.85 76.073 70.993 74.93 72.39 74.93H74.93C76.327 74.93 77.47 76.073 77.47 77.47V102.87Z" fill="white"/>
<path d="M29.21 46.99H26.67C22.479 46.99 19.05 50.419 19.05 54.61V57.15C19.05 61.341 22.479 64.77 26.67 64.77H29.21C33.401 64.77 36.83 61.341 36.83 57.15V54.61C36.83 50.419 33.401 46.99 29.21 46.99ZM31.75 57.15C31.75 58.547 30.607 59.69 29.21 59.69H26.67C25.273 59.69 24.13 58.547 24.13 57.15V54.61C24.13 53.213 25.273 52.07 26.67 52.07H29.21C30.607 52.07 31.75 53.213 31.75 54.61V57.15Z" fill="white"/>
<path d="M52.07 46.99H49.53C45.339 46.99 41.91 50.419 41.91 54.61V57.15C41.91 61.341 45.339 64.77 49.53 64.77H52.07C56.261 64.77 59.69 61.341 59.69 57.15V54.61C59.69 50.419 56.261 46.99 52.07 46.99ZM54.61 57.15C54.61 58.547 53.467 59.69 52.07 59.69H49.53C48.133 59.69 46.99 58.547 46.99 57.15V54.61C46.99 53.213 48.133 52.07 49.53 52.07H52.07C53.467 52.07 54.61 53.213 54.61 54.61V57.15Z" fill="white"/>
<path d="M29.21 69.85H26.67C22.479 69.85 19.05 73.279 19.05 77.47V80.01C19.05 84.201 22.479 87.63 26.67 87.63H29.21C33.401 87.63 36.83 84.201 36.83 80.01V77.47C36.83 73.279 33.401 69.85 29.21 69.85ZM31.75 80.01C31.75 81.407 30.607 82.55 29.21 82.55H26.67C25.273 82.55 24.13 81.407 24.13 80.01V77.47C24.13 76.073 25.273 74.93 26.67 74.93H29.21C30.607 74.93 31.75 76.073 31.75 77.47V80.01Z" fill="white"/>
<path d="M52.07 69.85H49.53C45.339 69.85 41.91 73.279 41.91 77.47V80.01C41.91 84.201 45.339 87.63 49.53 87.63H52.07C56.261 87.63 59.69 84.201 59.69 80.01V77.47C59.69 73.279 56.261 69.85 52.07 69.85ZM54.61 80.01C54.61 81.407 53.467 82.55 52.07 82.55H49.53C48.133 82.55 46.99 81.407 46.99 80.01V77.47C46.99 76.073 48.133 74.93 49.53 74.93H52.07C53.467 74.93 54.61 76.073 54.61 77.47V80.01Z" fill="white"/>
<path d="M29.21 92.71H26.67C22.479 92.71 19.05 96.139 19.05 100.33V102.87C19.05 107.061 22.479 110.49 26.67 110.49H29.21C33.401 110.49 36.83 107.061 36.83 102.87V100.33C36.83 96.139 33.401 92.71 29.21 92.71ZM31.75 102.87C31.75 104.267 30.607 105.41 29.21 105.41H26.67C25.273 105.41 24.13 104.267 24.13 102.87V100.33C24.13 98.933 25.273 97.79 26.67 97.79H29.21C30.607 97.79 31.75 98.933 31.75 100.33V102.87Z" fill="white"/>
<path d="M52.07 92.71H49.53C45.339 92.71 41.91 96.139 41.91 100.33V102.87C41.91 107.061 45.339 110.49 49.53 110.49H52.07C56.261 110.49 59.69 107.061 59.69 102.87V100.33C59.69 96.139 56.261 92.71 52.07 92.71ZM54.61 102.87C54.61 104.267 53.467 105.41 52.07 105.41H49.53C48.133 105.41 46.99 104.267 46.99 102.87V100.33C46.99 98.933 48.133 97.79 49.53 97.79H52.07C53.467 97.79 54.61 98.933 54.61 100.33V102.87Z" fill="white"/>
<path d="M74.93 46.99H72.39C68.199 46.99 64.77 50.419 64.77 54.61V57.15C64.77 61.341 68.199 64.77 72.39 64.77H74.93C79.121 64.77 82.55 61.341 82.55 57.15V54.61C82.55 50.419 79.121 46.99 74.93 46.99ZM77.47 57.15C77.47 58.547 76.327 59.69 74.93 59.69H72.39C70.993 59.69 69.85 58.547 69.85 57.15V54.61C69.85 53.213 70.993 52.07 72.39 52.07H74.93C76.327 52.07 77.47 53.213 77.47 54.61V57.15Z" fill="white"/>
<path d="M111.76 6.34998C106.807 6.34998 102.87 10.287 102.87 15.24V96.012C102.87 104.267 105.156 112.395 109.601 119.507C110.109 120.269 110.871 120.65 111.76 120.65C112.649 120.65 113.411 120.142 113.919 119.507C118.364 112.522 120.65 104.267 120.65 96.012V15.24C120.65 10.287 116.713 6.34998 111.76 6.34998ZM115.57 96.012C115.57 101.854 114.3 107.569 111.76 112.903C109.22 107.696 107.95 101.854 107.95 96.012V31.75H115.57V96.012ZM115.57 26.67H107.95V15.24C107.95 13.081 109.601 11.43 111.76 11.43C113.919 11.43 115.57 13.081 115.57 15.24V26.67Z" fill="white"/>
</svg>
