<svg width="127" height="127" viewBox="0 0 127 127" fill="none" xmlns="http://www.w3.org/2000/svg">
<path d="M19.05 21.59C19.05 20.193 20.193 19.05 21.59 19.05H36.83C38.227 19.05 39.37 20.193 39.37 21.59C39.37 22.987 38.227 24.13 36.83 24.13H21.59C20.193 24.13 19.05 22.987 19.05 21.59ZM21.59 36.83H46.99C48.387 36.83 49.53 35.687 49.53 34.29C49.53 32.893 48.387 31.75 46.99 31.75H21.59C20.193 31.75 19.05 32.893 19.05 34.29C19.05 35.687 20.193 36.83 21.59 36.83ZM34.29 102.87H21.59C20.193 102.87 19.05 104.013 19.05 105.41C19.05 106.807 20.193 107.95 21.59 107.95H34.29C35.687 107.95 36.83 106.807 36.83 105.41C36.83 104.013 35.687 102.87 34.29 102.87ZM118.364 56.134C117.094 59.055 115.189 61.722 112.903 64.135L92.71 84.328V113.03C92.71 117.221 89.281 120.65 85.09 120.65H13.97C9.77898 120.65 6.34998 117.221 6.34998 113.03V13.97C6.34998 9.77898 9.77898 6.34998 13.97 6.34998H85.09C89.281 6.34998 92.71 9.77898 92.71 13.97V38.1C93.091 37.846 93.599 37.465 93.98 37.211C101.092 32.639 109.855 31.75 117.475 34.798C118.11 35.052 118.618 35.56 118.872 36.195C121.412 42.545 121.285 49.784 118.364 56.134ZM87.63 89.408L80.391 96.647C77.089 99.949 72.898 101.6 68.58 101.6C65.151 101.6 61.722 100.457 58.801 98.425L50.292 106.934C49.784 107.442 49.149 107.696 48.514 107.696C47.879 107.696 47.244 107.442 46.736 106.934C45.72 105.918 45.72 104.394 46.736 103.378L55.245 94.869C50.546 88.392 51.054 79.248 56.896 73.406L87.63 42.672V13.97C87.63 12.573 86.487 11.43 85.09 11.43H13.97C12.573 11.43 11.43 12.573 11.43 13.97V113.03C11.43 114.427 12.573 115.57 13.97 115.57H85.09C86.487 115.57 87.63 114.427 87.63 113.03V89.408ZM114.554 39.116C108.712 37.211 102.108 37.973 96.647 41.529C95.377 42.291 94.107 43.307 93.091 44.45L60.579 76.962C58.42 79.121 57.277 82.042 57.277 85.09C57.277 87.249 57.912 89.408 59.055 91.186L68.961 81.28C69.977 80.264 71.501 80.264 72.517 81.28C73.533 82.296 73.533 83.82 72.517 84.836L62.611 94.742C67.056 97.536 72.898 97.028 76.835 93.218L109.474 60.579C111.379 58.674 112.903 56.515 113.919 54.102C115.951 49.276 116.205 43.942 114.554 39.116Z" fill="white"/>
</svg>
