<svg width="127" height="127" viewBox="0 0 127 127" fill="none" xmlns="http://www.w3.org/2000/svg">
<path d="M62.865 52.07C56.515 52.07 51.435 57.15 51.435 63.5C51.435 69.85 56.515 74.93 62.865 74.93C69.215 74.93 74.295 69.85 74.295 63.5C74.295 57.15 69.088 52.07 62.865 52.07ZM62.865 69.85C59.309 69.85 56.515 67.056 56.515 63.5C56.515 59.944 59.309 57.15 62.865 57.15C66.421 57.15 69.215 59.944 69.215 63.5C69.215 67.056 66.294 69.85 62.865 69.85Z" fill="white"/>
<path d="M114.935 76.2C114.935 71.247 110.998 67.31 106.045 67.31C105.664 67.31 105.156 67.31 104.775 67.437C103.759 66.167 102.616 64.897 101.346 63.5C111.633 52.324 116.078 41.275 111.887 34.163C107.696 27.305 96.52 25.781 82.296 29.21C77.978 15.24 70.866 6.35001 62.865 6.35001C59.817 6.35001 56.896 7.62001 54.356 9.90601C53.086 9.27101 51.689 8.89001 50.165 8.89001C45.212 8.89001 41.275 12.827 41.275 17.78C41.275 20.701 42.672 23.368 44.958 24.892C44.45 26.289 43.942 27.686 43.434 29.21C41.529 28.702 39.751 28.321 37.973 28.067C25.908 26.162 17.399 28.321 13.843 34.163C9.652 41.275 13.97 52.197 24.257 63.5C22.606 65.278 21.209 66.929 19.812 68.707C12.319 78.359 10.16 86.995 13.716 92.837C14.732 94.615 16.383 96.139 18.415 97.155C18.796 101.727 22.606 105.41 27.305 105.41C31.242 105.41 34.671 102.87 35.814 99.187C36.576 99.06 37.211 98.933 37.973 98.933C39.751 98.679 41.529 98.298 43.434 97.79C47.752 111.76 54.864 120.65 62.865 120.65C70.866 120.65 77.978 111.76 82.296 97.79C87.122 98.933 91.694 99.568 95.758 99.568C103.378 99.568 109.22 97.409 111.887 92.837C113.665 89.789 113.919 86.106 112.776 81.915C114.046 80.391 114.935 78.359 114.935 76.2ZM27.305 100.33C25.146 100.33 23.495 98.552 23.495 96.52C23.495 94.361 25.146 92.71 27.305 92.71C29.464 92.71 31.115 94.361 31.115 96.52C31.115 98.552 29.337 100.33 27.305 100.33ZM37.084 93.853C36.703 93.98 36.195 93.98 35.814 93.98C34.798 90.297 31.369 87.503 27.305 87.503C24.13 87.503 21.209 89.281 19.685 91.821C19.05 91.44 18.542 90.805 18.161 90.17C15.875 86.233 17.907 79.502 23.876 71.755C25.019 70.231 26.416 68.707 27.813 67.056C31.242 70.358 35.052 73.66 39.37 76.835C40.005 82.55 40.894 88.011 42.037 92.964C40.386 93.345 38.735 93.599 37.084 93.853ZM38.862 69.977C36.195 67.818 33.782 65.659 31.369 63.5C33.655 61.341 36.195 59.182 38.862 57.023C38.735 59.182 38.735 61.341 38.735 63.627C38.735 65.659 38.735 67.818 38.862 69.977ZM39.37 50.165C35.179 53.213 31.242 56.515 27.813 59.817C19.558 50.927 14.859 42.164 18.034 36.83C19.812 34.036 23.876 32.512 29.718 32.512C31.877 32.512 34.417 32.766 37.084 33.147C38.735 33.401 40.386 33.782 42.037 34.163C40.767 38.989 39.878 44.45 39.37 50.165ZM80.645 46.228C78.867 45.085 77.089 43.942 75.184 42.799C73.025 41.529 70.993 40.386 68.834 39.243C72.136 37.846 75.438 36.576 78.613 35.56C79.502 38.989 80.137 42.545 80.645 46.228ZM59.055 17.78C59.055 16.129 58.674 14.605 57.785 13.335C59.309 12.065 61.087 11.43 62.865 11.43C68.961 11.43 73.914 19.431 77.343 30.607C72.771 32.004 67.818 33.909 62.865 36.195C57.912 33.909 53.086 32.004 48.387 30.607C48.768 29.21 49.276 27.94 49.657 26.67C49.784 26.67 49.911 26.67 50.165 26.67C54.991 26.67 59.055 22.733 59.055 17.78ZM50.165 13.97C52.324 13.97 53.975 15.621 53.975 17.78C53.975 19.812 52.324 21.59 50.165 21.59C48.006 21.59 46.355 19.812 46.355 17.78C46.355 15.621 48.006 13.97 50.165 13.97ZM46.99 35.433C50.165 36.449 53.594 37.719 56.896 39.116C54.737 40.259 52.578 41.402 50.419 42.799C48.514 43.942 46.736 45.085 44.958 46.228C45.466 42.545 46.228 38.862 46.99 35.433ZM44.958 80.772C46.736 81.915 48.514 83.058 50.419 84.201C52.578 85.471 54.737 86.741 56.896 87.884C53.594 89.281 50.165 90.551 46.99 91.567C46.228 88.138 45.466 84.455 44.958 80.772ZM62.865 115.57C56.769 115.57 51.816 107.569 48.387 96.393C53.086 94.996 57.912 93.091 62.865 90.805C67.818 93.091 72.771 94.996 77.343 96.393C73.914 107.569 68.834 115.57 62.865 115.57ZM78.613 91.44C75.438 90.424 72.136 89.281 68.707 87.884C70.866 86.741 73.025 85.598 75.057 84.328C76.962 83.185 78.74 82.042 80.518 80.899C80.137 84.455 79.502 88.011 78.613 91.44ZM81.407 74.041C78.486 76.073 75.565 78.105 72.517 79.883C69.342 81.788 66.04 83.566 62.865 85.09C59.563 83.439 56.261 81.661 53.086 79.883C50.038 78.105 47.117 76.073 44.196 74.041C43.942 70.485 43.688 67.056 43.688 63.5C43.688 59.944 43.815 56.388 44.196 52.832C46.99 50.8 49.911 48.895 52.959 47.117C56.134 45.212 59.436 43.434 62.865 41.783C66.04 43.307 69.342 45.085 72.517 47.117C75.565 48.895 78.486 50.927 81.407 52.959C81.661 56.515 81.915 59.944 81.915 63.5C81.915 67.056 81.661 70.485 81.407 74.041ZM96.266 32.385C101.6 32.385 105.664 33.782 107.442 36.83C110.617 42.164 106.045 50.927 97.663 59.817C94.234 56.515 90.424 53.34 86.233 50.165C85.725 44.45 84.709 39.116 83.566 34.163C88.265 33.02 92.583 32.385 96.266 32.385ZM86.741 57.023C89.281 59.055 91.821 61.214 94.107 63.5C91.821 65.659 89.408 67.818 86.741 69.977C86.868 67.818 86.868 65.659 86.868 63.5C86.995 61.341 86.868 59.182 86.741 57.023ZM107.569 90.17C104.394 95.377 94.996 95.631 83.693 92.71C84.963 87.884 85.852 82.423 86.36 76.708C90.551 73.533 94.488 70.358 97.79 67.056C98.552 67.945 99.314 68.707 99.949 69.469C98.171 71.12 97.028 73.406 97.028 76.073C97.028 81.026 100.965 84.963 105.918 84.963C106.807 84.963 107.569 84.836 108.331 84.582C108.712 86.741 108.458 88.646 107.569 90.17ZM106.045 80.01C103.886 80.01 102.235 78.232 102.235 76.2C102.235 74.041 103.886 72.39 106.045 72.39C108.204 72.39 109.855 74.041 109.855 76.2C109.855 78.232 108.077 80.01 106.045 80.01Z" fill="white"/>
</svg>
