<svg width="127" height="127" viewBox="0 0 127 127" fill="none" xmlns="http://www.w3.org/2000/svg">
<path d="M107.95 54.61H77.47V19.05C77.47 12.0523 71.7677 6.34998 64.77 6.34998H19.05C12.0523 6.34998 6.35001 12.0523 6.35001 19.05V59.69C6.35001 66.6877 12.0523 72.39 19.05 72.39H49.53V107.95C49.53 114.948 55.2323 120.65 62.23 120.65H107.95C114.948 120.65 120.65 114.948 120.65 107.95V67.31C120.65 60.3123 114.948 54.61 107.95 54.61ZM19.05 67.31C14.8463 67.31 11.43 63.8937 11.43 59.69V19.05C11.43 14.8463 14.8463 11.43 19.05 11.43H64.77C68.9737 11.43 72.39 14.8463 72.39 19.05V59.69C72.39 63.8937 68.9737 67.31 64.77 67.31H19.05ZM115.57 107.95C115.57 112.154 112.154 115.57 107.95 115.57H62.23C58.0263 115.57 54.61 112.154 54.61 107.95V72.39H64.77C71.7677 72.39 77.47 66.6877 77.47 59.69H107.95C112.154 59.69 115.57 63.1063 115.57 67.31V107.95ZM101.6 83.82C101.6 85.217 100.457 86.36 99.06 86.36H96.52V101.6C96.52 102.997 95.377 104.14 93.98 104.14C92.583 104.14 91.44 102.997 91.44 101.6V86.36H86.36V88.9C86.36 97.3074 79.5274 104.14 71.12 104.14C69.723 104.14 68.58 102.997 68.58 101.6C68.58 100.203 69.723 99.06 71.12 99.06C71.7931 99.06 72.4408 98.9965 73.0758 98.8695C77.7367 97.9551 81.28 93.8403 81.28 88.9V86.36H76.2C74.803 86.36 73.66 85.217 73.66 83.82C73.66 82.423 74.803 81.28 76.2 81.28H91.44V73.66C91.44 72.263 92.583 71.12 93.98 71.12C95.377 71.12 96.52 72.263 96.52 73.66V81.28H99.06C100.457 81.28 101.6 82.423 101.6 83.82ZM44.2341 26.9113C44.2087 26.8605 44.1706 26.8224 44.1579 26.7716C44.1071 26.6827 44.069 26.6065 44.0182 26.5303C43.9674 26.4668 43.9166 26.4033 43.8658 26.3398C43.815 26.2763 43.7642 26.2128 43.7007 26.1493C43.6372 26.0858 43.5737 26.035 43.5102 25.9842C43.4467 25.9334 43.3832 25.8826 43.3197 25.8318C43.2435 25.781 43.1673 25.7429 43.0911 25.7048C43.0403 25.6794 42.9895 25.6413 42.9387 25.6159C42.926 25.6159 42.9006 25.6032 42.8752 25.6032C42.799 25.5651 42.7101 25.5397 42.6339 25.5143C42.5577 25.4889 42.4815 25.4635 42.3926 25.4508C42.3164 25.4381 42.2402 25.4381 42.164 25.4254C42.0751 25.4127 41.9862 25.4 41.91 25.4C41.8338 25.4 41.7576 25.4127 41.6814 25.4254C41.5925 25.4254 41.5036 25.4381 41.4147 25.4508C41.3512 25.4635 41.275 25.4889 41.2115 25.5143C41.1226 25.5397 41.021 25.5651 40.9321 25.6032C40.9194 25.6032 40.894 25.6159 40.8813 25.6159C40.8305 25.6413 40.7924 25.6667 40.7416 25.6921C40.6527 25.7429 40.5765 25.781 40.5003 25.8318C40.4368 25.8826 40.3733 25.9334 40.3098 25.9715C40.2463 26.035 40.1828 26.0858 40.1193 26.1493C40.0558 26.2128 40.005 26.2763 39.9542 26.3398C39.9034 26.4033 39.8526 26.4541 39.8018 26.5303C39.751 26.6065 39.7129 26.6827 39.6748 26.7716C39.6494 26.8097 39.6113 26.8605 39.5859 26.9113L29.4259 49.7713C28.8544 51.054 29.4386 52.5526 30.7213 53.1241C31.0515 53.2638 31.4071 53.34 31.75 53.34C32.7279 53.34 33.655 52.7812 34.0741 51.8287L36.7919 45.72H47.0281L49.7459 51.8287C50.165 52.7812 51.0921 53.34 52.07 53.34C52.4129 53.34 52.7685 53.2638 53.0987 53.1241C54.3814 52.5526 54.9656 51.054 54.3941 49.7713L44.2341 26.9113ZM39.0398 40.64L41.91 34.1884L44.7802 40.64H39.0398Z" fill="white"/>
</svg>
